<?xml version="1.0" encoding="utf-8"?>
<!-- Generator: Adobe Illustrator 21.1.0, SVG Export Plug-In . SVG Version: 6.00 Build 0)  -->
<svg version="1.1" id="Ebene_1" xmlns="http://www.w3.org/2000/svg" xmlns:xlink="http://www.w3.org/1999/xlink" x="0px" y="0px"
	 viewBox="0 0 645 150" style="enable-background:new 0 0 645 150;" xml:space="preserve">
<style type="text/css">
	.st0{fill:#FF0099;}
</style>
<path d="M4.1,43.3h44.2v13.4H20.5v16.5h26v13.3h-26v29.1H4.1V43.3z"/>
<path d="M70.3,97.1l-5.1,18.6h-17l22.1-72.3h21.5l22.4,72.3H96.6L91,97.1H70.3z M88.6,84.8l-4.5-15.3c-1.3-4.3-2.6-9.7-3.6-13.9
	h-0.2c-1.1,4.3-2.1,9.8-3.3,13.9l-4.3,15.3H88.6z"/>
<path d="M123.8,43.3H140v32h0.3c1.6-2.8,3.3-5.4,4.9-7.9l16.4-24h20.1l-23.9,30.8l25.2,41.5h-19.1l-17.7-31.2L140,92v23.6h-16.2
	V43.3z"/>
<path d="M204.3,57.1h-19.4V43.3h55.6V57h-19.7v58.6h-16.4V57.1H204.3z"/>
<path d="M292.1,85.1h-26.6v17.2h29.7v13.4h-46.1V43.3h44.6v13.4h-28.2v15h26.6V85.1z"/>
<path d="M306.4,115.6V43.3h19.1l15,26.5c4.3,7.6,8.6,16.6,11.8,24.8h0.3c-1.1-9.5-1.4-19.3-1.4-30.1V43.3h15v72.3H349l-15.4-27.9
	c-4.3-7.7-9-17.1-12.6-25.5l-0.3,0.1c0.4,9.5,0.6,19.7,0.6,31.5v21.8C321.3,115.6,306.4,115.6,306.4,115.6z"/>
<path class="st0" d="M396.8,43.3v27.8h26.9V43.3H440v72.3h-16.3V85.4h-26.9v30.3h-16.4V43.3H396.8z"/>
<path class="st0" d="M471.2,97.1l-5.2,18.6h-17l22.1-72.3h21.5l22.4,72.3h-17.6l-5.6-18.6H471.2z M489.5,84.8L485,69.5
	c-1.3-4.3-2.6-9.7-3.6-13.9h-0.2c-1.1,4.3-2.1,9.8-3.3,13.9l-4.3,15.3H489.5z"/>
<path class="st0" d="M537.3,43.3V85c0,12.4,4.7,18.8,13.1,18.8c8.6,0,13.3-6,13.3-18.8V43.3H580v40.6c0,22.3-11.3,32.9-30.1,32.9
	c-18.2,0-29-10.1-29-33.2V43.3H537.3z"/>
<path class="st0" d="M594.7,98.8c4.4,2.3,11.2,4.5,18.1,4.5c7.5,0,11.5-3.1,11.5-7.8c0-4.5-3.4-7.1-12.1-10.2
	c-12-4.2-19.8-10.8-19.8-21.3c0-12.3,10.3-21.8,27.4-21.8c8.2,0,14.2,1.7,18.5,3.6L634.5,59c-2.9-1.4-8-3.4-15.1-3.4
	s-10.5,3.2-10.5,7c0,4.6,4.1,6.7,13.4,10.2C635,77.4,641,84.1,641,94.3c0,12.1-9.3,22.4-29.2,22.4c-8.3,0-16.4-2.1-20.5-4.4
	L594.7,98.8z"/>
</svg>
